<?xml version="1.0" encoding="UTF-8" standalone="no"?>
<svg
   xmlns:dc="http://purl.org/dc/elements/1.1/"
   xmlns:cc="http://creativecommons.org/ns#"
   xmlns:rdf="http://www.w3.org/1999/02/22-rdf-syntax-ns#"
   xmlns:svg="http://www.w3.org/2000/svg"
   xmlns="http://www.w3.org/2000/svg"
   xmlns:sodipodi="http://sodipodi.sourceforge.net/DTD/sodipodi-0.dtd"
   xmlns:inkscape="http://www.inkscape.org/namespaces/inkscape"
   sodipodi:docname="Man in suit and tie 2.svg"
   inkscape:version="1.0 (4035a4fb49, 2020-05-01)"
   id="svg1085"
   version="1.1"
   viewBox="0 0 30.847328 54.491264"
   height="54.491264mm"
   width="30.847328mm">
  <title
     id="title1107">Man in suit and tie</title>
  <defs
     id="defs1079" />
  <sodipodi:namedview
     inkscape:window-maximized="0"
     inkscape:window-y="0"
     inkscape:window-x="96"
     inkscape:window-height="1030"
     inkscape:window-width="1426"
     fit-margin-bottom="0"
     fit-margin-right="0"
     fit-margin-left="0"
     fit-margin-top="0"
     showgrid="false"
     inkscape:document-rotation="0"
     inkscape:current-layer="layer1"
     inkscape:document-units="mm"
     inkscape:cy="460.26057"
     inkscape:cx="38.860488"
     inkscape:zoom="0.35"
     inkscape:pageshadow="2"
     inkscape:pageopacity="0.0"
     borderopacity="1.0"
     bordercolor="#666666"
     pagecolor="#ffffff"
     id="base" />
  <metadata
     id="metadata1082">
    <rdf:RDF>
      <cc:Work
         rdf:about="">
        <dc:format>image/svg+xml</dc:format>
        <dc:type
           rdf:resource="http://purl.org/dc/dcmitype/StillImage" />
        <dc:title>Man in suit and tie</dc:title>
        <cc:license
           rdf:resource="http://creativecommons.org/publicdomain/zero/1.0/" />
      </cc:Work>
      <cc:License
         rdf:about="http://creativecommons.org/publicdomain/zero/1.0/">
        <cc:permits
           rdf:resource="http://creativecommons.org/ns#Reproduction" />
        <cc:permits
           rdf:resource="http://creativecommons.org/ns#Distribution" />
        <cc:permits
           rdf:resource="http://creativecommons.org/ns#DerivativeWorks" />
      </cc:License>
    </rdf:RDF>
  </metadata>
  <g
     transform="translate(-95.551496,-24.877485)"
     id="layer1"
     inkscape:groupmode="layer"
     inkscape:label="Lager 1">
    <path
       transform="scale(0.26458333)"
       d="m 418.49219,94.039062 c -10.69648,-0.183307 -27.30946,1.477446 -30.03711,3.003907 -4.37133,2.446299 -16.45284,14.152601 -17.98438,17.425781 -1.49393,3.19275 -1.64124,5.73806 -1.10742,19 0.33902,8.42236 0.87752,17.11445 1.19727,19.31445 0.51038,3.51296 0.29707,4.12176 -1.74414,5 -2.18487,0.94001 -2.30375,1.44989 -1.98438,8.5 0.47426,10.47311 0.93391,13.51958 2.6582,17.64649 0.82659,1.97833 1.50196,4.44178 1.50196,5.47461 0,1.03282 0.8763,2.75518 1.94726,3.82617 1.07101,1.07099 2.46437,3.88348 3.09571,6.25 1.26013,4.72387 7.59754,18.46151 8.88281,19.25586 0.44372,0.27432 0.59197,1.62782 0.32812,3.00781 -0.48778,2.55174 3.25563,9.50823 8.69532,16.15625 1.40322,1.71493 3.80778,4.75243 5.34375,6.75 h 0.002 c 1.53596,1.99757 3.22344,3.63281 3.75,3.63281 1.95258,0 1.64806,-0.47414 -7.33984,-11.39062 -1.76134,-2.13927 -4.4192,-5.28672 -5.90625,-6.9961 -2.55394,-2.93577 -4.40097,-7.34319 -3.46875,-8.27539 0.23357,-0.23357 1.38023,1.19706 2.54882,3.17774 1.16863,1.98067 2.55916,3.33189 3.08985,3.0039 0.53068,-0.32798 2.76202,0.32062 4.95898,1.44141 7.38936,3.76977 19.80768,1.8925 26.05078,-3.93945 1.64625,-1.53783 3.63154,-3.04107 4.41016,-3.33985 3.48034,-1.33553 17.49767,-21.21348 15.95312,-22.62304 -0.33713,-0.30769 -0.823,0.0276 -1.07812,0.74414 -0.95747,2.68817 -14.46143,17.79979 -18.19141,20.35742 -6.83387,4.68596 -12.89796,6.83984 -19.26367,6.83984 -7.95167,0 -10.4778,-1.44435 -15.77148,-9.01367 -1.34109,-1.91757 -2.90984,-3.81662 -3.48633,-4.2207 -0.57638,-0.40406 -0.70371,-0.74207 -0.2832,-0.75 0.42043,-0.008 -0.52398,-2.60313 -2.09766,-5.76563 -3.08667,-6.20292 -4.97226,-11.76796 -7.71094,-22.75 -2.75542,-11.04927 -3.04513,-16.13332 -1.67773,-29.5 1.63975,-16.04436 1.64398,-20.11407 0.0293,-21.13867 -1.06775,-0.6772 -1.05878,-0.83323 0.0469,-0.8457 0.79272,-0.009 1.11759,-0.63909 0.78125,-1.51563 -0.31635,-0.825 -0.1542,-1.5 0.36133,-1.5 0.51556,0 0.68008,-0.67499 0.36328,-1.5 -0.31673,-0.825 -0.0775,-1.5 0.53125,-1.5 1.79716,0 1.2765,-1.71362 -1.39453,-4.5957 -3.18652,-3.43952 -3.1864,-7.36853 -0.002,-10.80469 2.16635,-2.33757 2.98788,-2.6026 6.24805,-2.0039 2.06521,0.37928 3.91347,1.09702 4.10547,1.59375 0.192,0.49669 1.63884,2.31729 3.2168,4.04492 l 2.86914,3.14062 -0.50196,-2.76562 c -0.4295,-2.36852 -0.22602,-2.6788 1.41407,-2.1582 1.24429,0.39493 2.12966,0.05 2.52734,-0.98633 0.48442,-1.26235 0.14476,-1.4641 -1.63086,-0.96485 -1.75782,0.49427 -1.91931,0.40285 -0.74414,-0.41992 0.825,-0.57761 2.95577,-1.05652 4.73438,-1.06445 l 3.23242,-0.0156 -1.70313,3.75 c -0.93728,2.0625 -1.82809,3.93437 -1.97851,4.16016 -0.15043,0.22579 -1.28844,-0.44921 -2.5293,-1.5 l -2.25586,-1.91016 2,2.41992 c 1.75079,2.11829 1.7823,2.33997 0.25,1.78126 -2.76333,-1.00773 -2.04693,-0.0697 1.5,1.96484 3.10507,1.78113 7.75,2.04135 7.75,0.43359 0,-0.41881 -1.12505,-1.36373 -2.5,-2.09961 -3.0147,-1.61341 -3.08482,-2.52981 -0.51172,-6.75 1.79804,-2.949 2.43219,-3.25 6.8418,-3.25 3.58972,0 5.33295,-0.52266 6.66992,-2 1.28096,-1.41543 3.07927,-2 6.1543,-2 2.38975,0 4.3457,-0.35301 4.3457,-0.78515 0,-0.88043 -2.31199,-1.28907 -7.5,-1.32422 -6.94522,-0.0473 -9.58641,-0.083 -14.75,-0.19922 -5.16299,-0.11618 -10.46983,0.69442 -11.53906,1.76367 -0.29896,0.29919 0.5439,0.55261 1.87304,0.56055 1.85829,0.0117 2.07959,0.22715 0.9629,0.93359 -0.79873,0.50529 -1.87822,0.65477 -2.4004,0.33203 -0.52221,-0.32273 -1.55724,0.24171 -2.29882,1.25586 -0.74155,1.01418 -1.34766,1.46376 -1.34766,0.99805 0,-0.46571 1.12634,-2.32476 2.50391,-4.13086 2.01101,-2.63654 3.44004,-3.40597 7.25,-3.90625 8.20743,-1.077698 9.5012,-2.353866 2.46289,-2.429688 -6.85195,-0.07381 -10.83537,1.31847 -16.13086,5.642578 -1.98955,1.62466 -3.20591,2.16319 -2.91602,1.28906 0.27364,-0.825 3.15188,-3.075 6.39649,-5 5.1205,-3.037958 6.69813,-3.482595 11.94922,-3.369138 3.32734,0.07189 10.06153,1.136356 14.96679,2.365235 6.75742,1.692883 9.3439,1.968003 10.67188,1.138673 1.22929,-0.767691 1.9485,-0.776985 2.4082,-0.0332 0.36057,0.58329 1.69973,0.79898 2.97656,0.47851 3.00892,-0.75519 6.75039,0.70963 11.85547,4.64453 l 4.10547,3.16407 -2.49023,-2.94336 c -1.3694,-1.61966 -3.14317,-3.50782 -3.94141,-4.19532 -0.79805,-0.6875 -1.06923,-1.25 -0.60352,-1.25 1.25866,0 7.51504,4.95103 10.66993,8.44336 3.58628,3.96993 7.6795,15.79596 4.86523,14.05664 -0.55,-0.33993 -1,-1.48743 -1,-2.54882 0,-1.45155 -0.626,-1.87775 -2.52344,-1.72071 -1.83624,0.15198 -2.34975,0.62448 -1.88672,1.73828 0.34961,0.84151 0.85628,2.29301 1.125,3.22461 0.26873,0.93159 1.45528,1.83661 2.63672,2.01172 1.87873,0.27844 1.74095,0.50464 -1.10156,1.80078 -1.78753,0.81507 -3.25,1.78615 -3.25,2.15821 0,0.37201 -1.35497,0.97444 -3.00976,1.33789 -1.6548,0.36344 -2.75165,1.07483 -2.43946,1.58007 0.97036,1.5701 4.38983,1.00862 6.11133,-1.00195 1.45198,-1.69581 1.81625,-1.74626 3.12695,-0.43555 1.04844,1.04842 1.79456,1.17226 2.54688,0.41993 1.63789,-1.63699 3.07231,-1.26129 1.66406,0.43554 -0.6847,0.82501 -1.81235,1.5 -2.50586,1.5 -1.2274,0 -2.85019,3.97598 -1.97851,4.84766 0.24,0.23989 1.12267,-0.13239 1.96093,-0.82813 1.28417,-1.06574 1.52344,-0.93079 1.52344,0.85743 0,1.31046 -0.66947,2.16669 -1.75,2.23828 -1.65434,0.1096 -1.6529,0.14184 0.0117,0.57617 0.96926,0.25281 1.49943,0.88305 1.17969,1.40039 -0.31975,0.51734 -0.99975,0.68171 -1.51172,0.36523 -1.51257,-0.93482 -1.06292,0.73903 0.73047,2.72071 2.05614,2.27202 0.92628,3.66997 -1.66016,2.05468 -1.0495,-0.6554 -2.15177,-0.79752 -2.44922,-0.3164 -0.29745,0.48111 0.21016,1.16183 1.12696,1.51367 1.47904,0.56756 1.4318,0.80571 -0.42383,2.10547 -1.1503,0.80554 -2.84204,1.17759 -3.75782,0.82617 -1.33065,-0.51069 -1.39628,-0.81197 -0.33007,-1.5 0.84926,-0.54816 0.97064,-1.13375 0.33398,-1.61133 -1.48524,-1.114 -1.67257,-5.24786 -0.23828,-5.26562 0.80969,-0.01 0.71746,-0.3504 -0.26367,-0.98438 -1.21297,-0.78387 -1.06748,-0.9719 0.75195,-0.98437 1.23749,-0.008 2.24805,-0.46563 2.24805,-1.01563 0,-0.55 -0.86299,-1 -1.91797,-1 -1.05502,0 -2.68973,-0.29753 -3.63477,-0.66015 -1.19822,-0.45973 -1.57825,-0.23905 -1.25586,0.72851 0.43798,1.31396 2e-4,2.11437 -2.9414,5.39453 -0.6875,0.76662 -1.24805,1.67139 -1.24805,2.00977 0,0.33838 0.56055,0.54243 1.24805,0.45312 2.57809,-0.33475 3.67521,0.1126 3.24219,1.32422 -0.24567,0.6875 0.11487,3.716 0.80078,6.73047 l 1.24609,5.48047 2.23047,-2.23047 c 1.28062,-1.28059 3.40379,-2.20425 4.98242,-2.16797 2.44029,0.0562 2.52044,0.15682 0.71484,0.88868 -1.11908,0.45361 -2.68329,1.60513 -3.4746,2.55859 -1.20367,1.45033 -0.80552,1.39335 2.43554,-0.34375 2.87361,-1.54017 4.35272,-1.82015 5.72461,-1.08594 2.12009,1.13465 2.51758,2.39007 0.51367,1.6211 -0.73391,-0.28162 -2.75888,0.60416 -4.5,1.96679 -2.58172,2.02051 -3.16406,3.19079 -3.16406,6.34571 0,2.12768 0.40665,4.12015 0.9043,4.42773 0.50343,0.31226 0.71379,-1.09745 0.47265,-3.19141 -0.51658,-4.48715 1.1457,-6.96715 5.50977,-8.21875 2.78702,-0.79931 3.12597,-0.66331 3.24805,1.28907 l 0.13671,2.17968 0.42579,-2.19922 c 0.55986,-2.88508 -1.3226,-6.29713 -3.48438,-6.3164 -1.07996,-0.01 -1.30121,-0.28732 -0.59765,-0.75 2.44928,-1.61072 3.35619,-24.57332 1.33203,-33.73438 -1.84555,-8.3526 -4.43042,-12.40009 -11.94922,-18.71484 -8.1913,-6.879561 -14.03691,-8.798599 -27.5,-9.029298 z m -1.27539,2.822266 c 0.23886,0.01663 0.50039,0.06089 0.77539,0.132813 1.09999,0.287659 2,0.69539 2,0.90625 0,0.210822 -0.90001,0.382812 -2,0.382812 -1.1,0 -2,-0.407738 -2,-0.90625 0,-0.373871 0.5074,-0.565091 1.22461,-0.515625 z m -13.66407,6.421872 c 0.24265,0 0.43946,0.45 0.43946,1 0,0.55 -0.47613,1 -1.0586,1 -0.58231,0 -0.78118,-0.45 -0.4414,-1 0.33978,-0.55 0.81794,-1 1.06054,-1 z m 8.93946,1.03125 c 0.54999,0 0.32503,0.43559 -0.5,0.96875 -0.825,0.53316 -1.95001,0.96875 -2.5,0.96875 -0.54996,0 -0.32507,-0.43559 0.5,-0.96875 0.82499,-0.53316 1.95004,-0.96875 2.5,-0.96875 z m 18.41797,0.0918 c -0.34734,-0.0144 -0.74453,0.0489 -1.10547,0.19336 -0.79775,0.31922 -0.55946,0.55552 0.60547,0.60351 1.05399,0.0434 1.64472,-0.19113 1.3125,-0.52343 -0.1663,-0.16615 -0.46509,-0.25912 -0.8125,-0.27344 z m -23.06641,0.16797 c 0.0737,0.0482 -0.37565,0.42112 -1.29102,1.1543 -1.06764,0.85536 -2.38138,1.55468 -2.91796,1.55468 -1.27053,0 -0.70362,-0.46211 2.35742,-1.91992 1.17864,-0.56133 1.77767,-0.83723 1.85156,-0.78906 z m 16.23828,1.88281 c -0.49803,-0.0113 -1.46839,0.0747 -2.98633,0.22852 -2.76083,0.27976 -5.17932,1.25455 -6.5,2.61914 l -2.10351,2.17383 3.5,-0.72266 c 1.92502,-0.39784 3.72485,-1.01834 4,-1.37695 0.27515,-0.35861 1.62497,-1.21068 3,-1.89453 1.43849,-0.71542 1.9199,-1.00834 1.08984,-1.02735 z m -24.0293,0.82617 c 0.51757,0 0.93946,0.45 0.93946,1 0,0.55 -0.70113,1 -1.5586,1 -0.85746,0 -1.28118,-0.45 -0.9414,-1 0.33978,-0.55 1.04301,-1 1.56054,-1 z m 32.28516,0.48047 c -3.49017,-0.0106 -6.3457,0.32693 -6.3457,0.75 0,0.42307 -1.23747,0.82097 -2.75,0.88477 -2.08834,0.0881 -2.26881,0.2335 -0.75,0.60351 2.60689,0.63508 5.5,3.2312 5.5,4.93555 0,0.73975 0.7875,1.38044 1.75,1.42383 1.04398,0.0471 1.24712,0.28324 0.50195,0.58398 -0.68708,0.27727 -3.28568,-0.27454 -5.77344,-1.22461 -2.48772,-0.95007 -4.76587,-1.48195 -5.06445,-1.18359 -0.2982,0.29836 1.84832,1.34552 4.77148,2.32812 4.70491,1.58157 5.0276,1.85776 2.81446,2.40821 l -2.5,0.62304 2.4375,0.64844 c 1.34029,0.35686 4.31945,0.39137 6.61914,0.0762 2.59676,-0.35591 4.442,-0.14932 4.87109,0.54493 0.77647,1.25637 2.59935,1.42819 5.07422,0.47851 1.32873,-0.50987 1.39582,-0.81185 0.33203,-1.48633 -1.02149,-0.64752 -0.92413,-0.84766 0.41602,-0.85937 0.96253,-0.008 1.75,-0.69968 1.75,-1.53516 0,-1.12279 -0.65353,-1.35455 -2.50977,-0.88867 -2.09061,0.5247 -2.40149,0.34047 -1.84961,-1.09766 0.57699,-1.50367 0.38155,-1.57588 -1.51562,-0.56054 -1.19879,0.64156 -1.94545,1.54694 -1.65821,2.01172 0.58217,0.94198 -2.45035,2.40313 -3.27539,1.57812 -0.288,-0.28796 -0.071,-0.52344 0.48243,-0.52344 1.4358,0 3.38304,-4.69098 2.69336,-6.48828 -0.319,-0.83152 -1.09405,-1.52558 -1.72266,-1.54297 -0.62865,-0.0174 -0.42651,-0.58 0.45117,-1.25 1.307,-0.99771 0.44734,-1.22241 -4.75,-1.23828 z m 8.97266,0.21289 c -0.52638,-0.0986 0.40402,1.48464 2.77148,4.78125 2.27577,3.16898 3.72495,4.2662 5.5,4.16407 2.45802,-0.14143 3.47526,-1.63868 1.11328,-1.63868 -0.71425,0 -3.18919,-1.81669 -5.5,-4.03711 -2.18377,-2.09834 -3.47536,-3.19281 -3.88476,-3.26953 z m -63.12891,2.32227 c -1.45522,0.0132 -1.48284,0.14858 -0.18945,0.98437 1.08982,0.70441 1.14271,0.97342 0.1914,0.98438 -0.72124,0.008 -1.03118,0.46562 -0.6914,1.01562 1.00364,1.6239 2.0648,1.14767 2.22656,-1 0.096,-1.27464 -0.46142,-1.9942 -1.53711,-1.98437 z m 4.51758,2.98437 c -0.58061,0 -0.13307,1.01251 0.99414,2.25 1.12713,1.2375 2.63094,3.37451 3.3418,4.74805 0.73167,1.4137 1.46942,1.96864 1.69922,1.2793 0.47973,-1.43916 -4.5063,-8.27735 -6.03516,-8.27735 z m 28.64062,2 c -2.43586,0 -5.92226,6.26027 -4.64062,8.33399 0.41189,0.66646 1.01106,-0.30149 1.41797,-2.29102 0.38759,-1.89511 1.50545,-4.02977 2.48242,-4.74414 0.97712,-0.71438 1.31011,-1.29883 0.74023,-1.29883 z m 5.86524,0.0742 c -0.38861,-0.0113 -0.96979,0.28823 -1.47852,0.80078 -0.98026,0.98762 -0.86463,1.10323 0.56055,0.56055 0.98615,-0.37553 1.54045,-0.93431 1.23242,-1.24219 -0.0771,-0.077 -0.18481,-0.11532 -0.31445,-0.11914 z m -39.51953,0.0488 c -0.60443,0.0738 -1.17325,0.84049 -1.84571,2.31641 -0.89374,1.96152 -0.79332,2.75552 0.51368,4.0625 0.89378,0.89367 2.07663,1.34449 2.63086,1.00195 0.55422,-0.34254 1.00781,-0.14494 1.00781,0.4375 h 0.002 c 0,0.58246 0.47613,1.05859 1.05859,1.05859 0.58235,0 0.78119,-0.45 0.44141,-1 -0.33978,-0.55 -0.14286,-1 0.43945,-1 0.58247,0 1.06055,-0.45 1.06055,-1 0,-0.55 -1.12497,-1 -2.5,-1 -1.37499,0 -2.5,-0.49857 -2.5,-1.10742 0,-0.60881 0.66743,-0.85058 1.48438,-0.53711 1.24221,0.47676 1.28526,0.24934 0.25976,-1.39258 -0.80886,-1.29514 -1.44836,-1.9136 -2.05273,-1.83984 z m 42.80664,2.0625 -3.66016,0.0664 c -2.78619,0.05 -3.90648,0.60112 -4.68359,2.30664 -0.56175,1.23284 -0.7396,2.52391 -0.39453,2.86914 0.34507,0.34522 1.01885,-0.0691 1.49609,-0.92188 0.47724,-0.85277 2.30144,-2.17408 4.05469,-2.93554 z m 10,5.79492 3,1.46485 c 3.93309,1.92004 9.62766,1.93822 12.06054,0.0391 1.84483,-1.44014 1.8054,-1.48402 -0.79492,-0.89453 -3.60056,0.81623 -6.50111,0.82545 -10.76562,0.0371 z m -58.88672,4.36328 c 0.11943,0.02 0.24907,0.0713 0.38672,0.15625 0.54999,0.33993 1,0.81606 1,1.0586 0,0.24253 -0.45001,0.4414 -1,0.4414 -0.55004,0 -1,-0.47613 -1,-1.05859 0,-0.43683 0.25475,-0.65795 0.61328,-0.59766 z m 83.08594,0.0879 c 0.34356,0.1033 0.37973,0.63124 -0.15821,1.50196 h 0.002 c -0.36246,0.58658 -1.13778,1.0664 -1.72266,1.0664 -0.66316,0 -0.58746,-0.575 0.20117,-1.52539 0.68568,-0.8263 1.33437,-1.14627 1.67774,-1.04297 z m -10.69922,6.64649 c -0.81562,0.01 -1.63126,0.0688 -2.25,0.17773 -2.2413,0.39462 -2.24041,0.40184 0.25,1.45313 1.77944,0.75109 3.07644,0.73529 4.5,-0.0547 1.95352,-1.08397 1.94772,-1.11763 -0.25,-1.45117 -0.61875,-0.0939 -1.43438,-0.1349 -2.25,-0.125 z m 9.46093,16.34765 c 0.40014,0.0246 0.99777,0.42012 1.51954,1.04883 1.4426,1.73822 1.16581,1.90327 -0.95118,0.56446 -0.80897,-0.51167 -1.21081,-1.19157 -0.89257,-1.50977 0.0797,-0.0795 0.1908,-0.11175 0.32421,-0.10352 z m -70.06445,0.8086 c -2.17221,0.0643 -3.15254,0.57373 -4.67773,1.77344 -1.49457,1.17564 -2.71875,2.84841 -2.71875,3.71875 0,1.40761 0.19313,1.41834 1.75,0.0937 1.07451,-0.91421 3.48705,-1.4207 6.25,-1.3125 2.47498,0.0969 6.41251,0.2472 8.75,0.33398 3.04097,0.11289 4.25,0.58491 4.25,1.6582 0,0.825 0.38171,1.5 0.84765,1.5 2.17905,0 2.66601,4.50352 1.33399,12.34571 -0.76169,4.48429 -1.41892,9.61679 -1.45899,11.40429 -0.0476,2.11973 -0.56994,3.25 -1.5039,3.25 -0.84983,0 -1.20288,-0.59928 -0.86914,-1.46875 0.30992,-0.80739 0.13342,-1.73351 -0.39258,-2.05859 -0.52966,-0.32735 -0.95703,0.78846 -0.95703,2.5 0,2.06976 0.57797,3.26922 1.75,3.63281 0.96249,0.29858 3.10001,1.15532 4.75,1.9043 3.7183,1.68783 3.88253,1.70676 5.05078,0.55078 0.52248,-0.51702 3.1992,-1.3152 5.94922,-1.77344 4.65604,-0.77582 5,-1.03212 5,-3.72656 0,-1.59142 -0.56272,-3.08278 -1.25196,-3.3125 -0.78606,-0.262 -1.15874,0.37274 -1,1.70313 0.23018,1.92851 -0.31068,2.15358 -5.95117,2.47851 -7.86894,0.4533 -9.89033,-0.75822 -8.26562,-4.95898 0.63182,-1.63363 1.27264,-7.37629 1.42383,-12.75977 0.22639,-8.06084 -0.0113,-10.00201 -1.33985,-11 -0.888,-0.66652 -1.75866,-1.88594 -1.93554,-2.71094 -0.52441,-2.44717 -1.32481,-2.748 -9.21094,-3.45508 -2.53663,-0.22741 -4.26897,-0.34917 -5.57227,-0.31054 z m 45.69727,0.21484 c -0.40653,-0.007 -0.85143,-0.005 -1.34375,0.006 -1.31286,0.0295 -2.95761,0.11968 -5.07422,0.25 -8.67787,0.53428 -11.67578,1.41081 -11.67578,3.41602 0,0.48198 4.67236,0.73894 10.38281,0.57226 5.71045,-0.16667 11.22299,0.028 12.25,0.43164 4.20499,1.65278 4.54804,0.4532 0.79297,-2.77343 -1.55887,-1.3395 -2.48624,-1.85376 -5.33203,-1.90235 z m 16.09765,1.56641 c 0.93003,-0.008 1.96882,0.43437 2.3086,0.98437 0.78217,1.2656 -0.54164,1.2656 -2.5,0 -1.29283,-0.8354 -1.26568,-0.97114 0.1914,-0.98437 z m -55.55078,4.98828 c -4.28723,0.005 -10.34138,3.69979 -8.70508,5.3125 0.92652,0.91315 1.49462,0.78382 2.49219,-0.56641 1.55705,-2.10752 3.57227,-2.29623 3.57227,-0.33398 0,0.77916 0.5625,1.61873 1.25,1.86523 1.8921,0.67843 4.75,-1.1375 4.75,-3.01757 0,-1.29486 0.26797,-1.39818 1.20117,-0.46485 0.65998,0.66 1.67249,1.18611 2.25,1.16797 2.63905,-0.0836 -4.0335,-3.96589 -6.81055,-3.96289 z m 32.79688,0.0215 c -0.98979,0.0737 -2.48693,0.61636 -3.97266,1.58985 -1.35564,0.88826 -2.46484,2.0823 -2.46484,2.65429 0,0.57199 0.82427,0.29499 1.83008,-0.61523 2.35506,-2.13133 2.82563,-2.08372 3.46093,0.3457 0.65696,2.51218 4.49694,2.66501 6.28125,0.25 1.03586,-1.40211 1.54518,-1.50151 2.56055,-0.5 0.69706,0.6875 1.92242,1.25 2.72266,1.25 1.18208,0 1.1331,-0.35531 -0.25977,-1.89453 -2.14632,-2.37165 -6.63302,-3.30113 -8.53711,-1.76758 -1.117,0.89958 -1.27311,0.88043 -0.6914,-0.0879 0.54266,-0.90326 0.0601,-1.29831 -0.92969,-1.22461 z m -8.72071,0.37696 c -0.35225,-0.0729 -1.20693,0.34627 -2.68359,1.28125 -2.77867,1.75931 -3.29952,2.7146 -3.50781,6.4414 -0.13418,2.40663 0.0304,4.825 0.36523,5.375 0.33562,0.55 0.74216,-1.26553 0.9043,-4.0332 0.23509,-4.01096 0.72935,-5.22853 2.43555,-6 1.17732,-0.53233 2.34949,-1.61546 2.60351,-2.4082 0.12548,-0.39144 0.0941,-0.61251 -0.11719,-0.65625 z m -42.78125,0.19336 c 0.46114,0.0761 0.54049,0.70215 0.29297,1.99609 -0.54062,2.82812 -0.8021,2.96042 -1.62109,0.82617 -0.8106,-2.11234 -0.80697,-2.12847 0.73633,-2.7207 0.24075,-0.0923 0.43808,-0.12692 0.59179,-0.10156 z m 52.67774,2.74804 c 0.11943,0.02 0.2491,0.0713 0.38672,0.15625 0.54999,0.33993 1,0.81606 1,1.0586 0,0.24253 -0.45001,0.4414 -1,0.4414 -0.55,0 -1,-0.47613 -1,-1.05859 0,-0.43684 0.25471,-0.65795 0.61328,-0.59766 z m -33.68555,0.084 c 1.05963,0 1.70858,0.35493 1.44141,0.78711 -0.26721,0.43213 -1.13521,0.78515 -1.92774,0.78515 -0.79253,0 -1.4414,-0.35301 -1.4414,-0.78515 0,-0.43215 0.8681,-0.78711 1.92773,-0.78711 z m 67.23242,1.82422 c -0.0824,0.10235 0.019,0.66759 0.25782,1.74804 0.30538,1.375 0.62268,3.175 0.70507,4 0.0824,0.825 0.34394,0.50098 0.58008,-0.7207 0.23622,-1.22169 -0.0809,-3.02169 -0.70508,-4 -0.49035,-0.76875 -0.75564,-1.12973 -0.83789,-1.02734 z m -61.69336,1.86132 c -0.50985,0 -1.59225,0.29605 -2.96679,0.88672 -1.31872,0.56669 -1.48907,0.87778 -0.5,0.91407 0.82499,0.0302 2.175,-0.38091 3,-0.91407 0.91396,-0.59066 0.97665,-0.88672 0.46679,-0.88672 z m 23.23829,0.19727 c -0.77099,-0.0444 -1.3562,0.009 -1.54688,0.19922 -0.24642,0.24623 0.62991,0.87735 1.94727,1.4043 3.0681,1.22726 5.89453,1.33181 5.89453,0.21679 0,-0.69029 -3.98189,-1.68724 -6.29492,-1.82031 z m 42.71289,0.19141 -0.48047,7.5 c -0.35188,5.50702 -0.99702,8.09788 -2.42969,9.75 -2.00364,2.31044 -4.17533,3.14291 -2.92578,1.12109 0.42395,-0.68585 0.15192,-0.94816 -0.69141,-0.66602 -0.82371,0.27553 -1.38867,1.85597 -1.38867,3.88086 0,4.69222 -1.04737,5.91407 -5.06055,5.91407 -3.88747,0 -3.75663,-0.4395 -3.53515,11.89453 0.22299,12.41995 -5.13988,19.84393 -22.9043,31.70117 -9.77405,6.5239 -15.49578,11.24445 -14.65234,12.08789 0.72846,0.72845 4.38375,-1.43682 12.65234,-7.49414 11.27611,-8.26058 21.50711,-18.65996 24.19141,-24.58984 l 2.30859,-5.09961 0.30274,4.69922 c 0.17839,2.76834 -0.30729,5.87579 -1.18165,7.5664 -2.0937,4.04882 -12.28648,31.95947 -15.66406,42.89453 -1.55611,5.03802 -3.25431,9.98802 -3.77539,11 -1.88768,3.66602 -5.28234,16.36888 -4.64844,17.39453 1.01946,1.64956 2.83516,0.56413 4.38477,-2.61914 0.78093,-1.60416 1.60646,-2.35805 1.83398,-1.67578 0.66267,1.988 2.96461,1.4304 3.56446,-0.86328 0.51843,-1.98254 0.68027,-2.01125 2.83789,-0.5 3.33127,2.33332 6.07616,1.97813 9.40429,-1.2207 1.61692,-1.5541 3.72892,-3.1151 4.69141,-3.46875 1.1297,-0.41509 1.75,-1.69732 1.75,-3.61524 0,-2.71023 0.32769,-2.99812 3.74219,-3.28125 3.27159,-0.27129 3.99565,-0.82811 5.75,-4.42187 1.10385,-2.26131 2.4868,-3.93784 3.07422,-3.72656 4.10041,1.47473 10.61086,-13.18638 12.03711,-27.10743 0.47969,-4.68201 1.07673,-6.55468 2.09179,-6.55468 2.62885,0 0.19841,-2.02704 -6.52148,-5.43946 -7.34665,-3.73069 -16.92878,-11.7896 -20.00781,-16.82617 -2.74473,-4.48975 -3.38225,-17.73439 -0.85352,-17.73437 2.36564,-2e-5 10.49148,-10.4355 12.45898,-16 0.48609,-1.375 0.60448,-5.20004 0.26368,-8.5 z m -92.1211,0.31836 c 0.11452,-0.1533 0.32091,1.22666 0.78125,4.36523 0.72008,4.90869 2.8446,14.28995 4.54297,20.06445 0.28309,0.96251 0.0435,1.75 -0.5332,1.75 -0.57653,0 -1.2423,-1.0125 -1.47852,-2.25 -0.23622,-1.2375 -1.14529,-5.46389 -2.01953,-9.39258 -0.8742,-3.92869 -1.53407,-9.1037 -1.4668,-11.5 0.0522,-1.87048 0.085,-2.91787 0.17383,-3.0371 z m 83.61133,0.17578 c -0.60733,-0.0403 -0.9029,0.70019 -0.37305,2.2539 0.42203,1.2375 0.81277,3.9375 0.86719,6 0.0548,2.0625 0.41515,3.75 0.80274,3.75 1.34528,0 2.0497,-7.14803 0.94335,-9.57617 -0.71346,-1.5659 -1.63286,-2.38741 -2.24023,-2.42773 z m -3.65234,8.01953 c -0.2109,-0.008 -0.19587,0.59642 0.23047,1.93945 0.34469,1.08637 -0.0703,3.0078 -0.93555,4.32813 -0.85629,1.30649 -1.23517,2.69841 -0.8418,3.09179 0.39334,0.39337 1.46937,-0.28448 2.39063,-1.50586 1.30749,-1.73339 1.45798,-2.84027 0.68945,-5.04492 -0.61837,-1.77364 -1.26198,-2.79768 -1.5332,-2.80859 z m -41.47266,3.10742 c -0.60608,0.0745 -0.94362,1.01503 -0.4375,2.33398 0.3258,0.84873 1.05582,1.54297 1.62305,1.54297 1.26996,0 1.29457,-1.03495 0.0703,-2.9707 -0.43204,-0.68317 -0.89219,-0.95095 -1.25586,-0.90625 z m -7.44531,21.5 c -10.20102,-5e-4 -11.74264,0.49013 -8.8457,2.11133 2.19998,1.23117 26.81854,0.75855 29.08789,-0.5586 2.40052,-1.39331 2.93081,-1.34062 -15.32813,-1.52343 -1.82309,-0.0181 -3.45675,-0.0289 -4.91406,-0.0293 z m 13.81054,6.41406 c -0.50811,0.0391 -1.18021,0.39507 -1.83789,1.05274 -1.19856,1.19856 -12.65954,0.82643 -15.57031,-0.50586 -2.79178,-1.27784 -1.1758,1.67349 2.0332,3.71289 1.69467,1.077 3.81461,1.5391 5.60157,1.21875 1.58128,-0.28347 3.97184,-0.51563 5.31054,-0.51563 1.47051,0 2.17192,-0.4236 1.77344,-1.06836 -0.36321,-0.58769 0.28461,-1.31276 1.44141,-1.61523 1.15532,-0.30214 2.09961,-0.94774 2.09961,-1.43359 0,-0.60711 -0.34356,-0.88477 -0.85157,-0.84571 z m -30.40624,19.53516 c -0.54672,0.1793 -2.10353,1.74355 -3.75391,3.80469 -3.43865,4.29439 -10.08444,9.402 -15.23828,11.71289 -2.77247,1.24311 -3.70464,2.91211 -1.62696,2.91211 0.76336,0 0.71345,0.49333 -0.15429,1.53906 -1.76508,2.1268 -2.50236,19.83572 -1.04883,25.19531 1.61733,5.96367 7.08008,8.43787 7.08008,3.20703 0,-1.06754 0.45,-1.9414 1,-1.9414 0.54999,0 1,1.55736 1,3.46093 0,3.17974 2.95447,7.53907 5.10937,7.53907 0.4026,0 1.02817,1.34999 1.39063,3 0.6876,3.13056 1.9369,3.88707 2.89062,1.75 0.3069,-0.6875 0.51789,-0.35003 0.46875,0.75 -0.0484,1.09996 -0.0389,2.5625 0.0254,3.25 h -0.002 c 0.0635,0.68746 0.75073,1.24998 1.52734,1.25 0.86325,-2e-5 1.63402,-1.45765 1.98438,-3.75 0.67801,-4.43714 0.2347,-62.95276 -0.48242,-63.66993 -0.0336,-0.0336 -0.0911,-0.0342 -0.16797,-0.01 z m 21.91015,24.42969 c -1.15442,0 -5.40844,5.02955 -8.31055,9.82422 -1.43935,2.378 -4.59519,7.27421 -7.01367,10.88085 -2.41852,3.60665 -4.11214,6.83544 -3.76367,7.17579 0.97742,0.95431 9.4375,-8.83278 9.4375,-10.91797 0,-3.4615 1.89572,-3.02701 2.57422,0.58984 0.37228,1.98419 1.29518,3.84484 2.05078,4.13477 1.83318,0.70343 1.74708,3.7592 -0.15039,5.33398 -2.07069,1.7185 -3.18621,0.34591 -1.67969,-2.06641 1.75219,-2.80567 -0.28762,-2.41523 -3.07226,0.58789 -3.5799,3.86075 -9.35107,23.45702 -6.90821,23.45704 0.5709,-2e-5 1.18328,-0.69725 1.36133,-1.54883 0.26306,-1.25936 0.9774,-1.06015 3.82422,1.0625 2.61774,1.9518 4.23653,2.46476 6.42578,2.03711 1.60989,-0.3145 3.16966,-0.81224 3.46485,-1.10742 0.74502,-0.74501 -4.89307,-5.87474 -8.51563,-7.74805 -2.63403,-1.36214 -2.94159,-1.97355 -2.57422,-5.12109 0.22942,-1.96554 0.61925,-3.57422 0.86719,-3.57422 0.43563,0 7.03339,4.72523 12.49023,8.94531 1.46196,1.13065 3.33634,2.05469 4.16602,2.05469 0.82968,-2e-5 1.70941,0.5625 1.95508,1.25 0.24567,0.68745 0.69738,1.02298 1.0039,0.74609 0.99837,-0.9023 -0.92939,-13.3775 -2.1289,-13.77734 -0.64158,-0.21385 -0.90002,-0.82054 -0.57422,-1.34766 0.32579,-0.52711 0.0476,-1.61316 -0.61719,-2.41406 -0.66478,-0.80091 -0.84254,-1.45703 -0.39648,-1.45703 0.44606,-10e-6 -0.17539,-0.91764 -1.37891,-2.03907 -2.33454,-2.17493 -2.93755,-3.54156 -1.04687,-2.37304 0.66323,0.40988 2.53606,-0.90646 4.46679,-3.14063 1.82846,-2.11584 3.46841,-3.64412 3.64453,-3.39648 0.17575,0.24763 1.9968,3.03671 4.04493,6.19922 4.65906,7.19394 5.69614,7.52632 1.56054,0.5 -4.64421,-7.89046 -6.85322,-10.75 -8.30664,-10.75 -0.96245,0 -5.91638,5.44806 -6.97461,7.66992 -0.0442,0.0928 -1.28236,0.46904 -2.75195,0.83789 -2.53682,0.63665 -2.6586,0.49974 -2.40234,-2.73242 0.33222,-4.18452 3.88245,-8.46274 7.7246,-9.30664 l 2.87305,-0.63086 -2.10742,-2.96094 c -1.68117,-2.36101 -2.39106,-2.72334 -3.50977,-1.79492 -1.70823,1.41756 -1.88308,-0.20104 -0.20312,-1.88086 0.6599,-0.66 0.86257,-1.20117 0.45117,-1.20117 z m -2.03711,22 c 0.52109,0 1.44324,1.2375 2.04883,2.75 0.60556,1.51246 1.83501,4.4375 2.73242,6.5 2.02443,4.65268 0.58198,4.93223 -4.22656,0.81836 -3.2612,-2.79003 -3.30029,-2.91339 -1.79102,-5.83204 0.84836,-1.6401 1.26067,-3.26464 0.91602,-3.60937 -0.34507,-0.34473 -0.20051,-0.62695 0.32031,-0.62695 z"
       style="fill:#000000;stroke-width:0.999999"
       id="path1050" />
  </g>
</svg>
